<!--
  LENS icon sprite — vendored Phosphor (regular weight) glyphs as <symbol>s.
  Usage (see app/templating.py `icon()` global):
    {{ icon('home') }}
  or directly:
    <svg class="h-5 w-5" aria-hidden="true"><use href="/static/icons/sprite.svg#icon-home"/></svg>
  All paths use currentColor so icons inherit text color. viewBox is 0 0 256 256
  (Phosphor's native grid) unless noted.
-->
<svg xmlns="http://www.w3.org/2000/svg" style="display:none" aria-hidden="true">

  <symbol id="icon-home" viewBox="0 0 256 256">
    <path fill="currentColor" d="M218.83 103.77l-80-75.48a20 20 0 0 0-27.66 0l-80 75.48A20 20 0 0 0 25 118.53V208a20 20 0 0 0 20 20h60a12 12 0 0 0 12-12v-56a4 4 0 0 1 4-4h14a4 4 0 0 1 4 4v56a12 12 0 0 0 12 12h60a20 20 0 0 0 20-20v-89.47a20 20 0 0 0-6.17-14.76Z"/>
  </symbol>

  <symbol id="icon-receipt" viewBox="0 0 256 256">
    <path fill="currentColor" d="M208 24a12 12 0 0 0-12 12v6.3a4 4 0 0 1-6.1 3.4l-7.9-4.9a12 12 0 0 0-12.7 0l-9.1 5.6a4 4 0 0 1-4.2 0l-9.1-5.6a12 12 0 0 0-12.7 0l-9.1 5.6a4 4 0 0 1-4.2 0l-9.1-5.6a12 12 0 0 0-12.7 0l-9.1 5.6a4 4 0 0 1-4.2 0l-7.9-4.9a4 4 0 0 1-6.1-3.4V36a12 12 0 0 0-24 0v184a12 12 0 0 0 18.3 10.2l7.9-4.9a4 4 0 0 1 4.2 0l9.1 5.6a12 12 0 0 0 12.7 0l9.1-5.6a4 4 0 0 1 4.2 0l9.1 5.6a12 12 0 0 0 12.7 0l9.1-5.6a4 4 0 0 1 4.2 0l9.1 5.6a12 12 0 0 0 12.7 0l7.9-4.9A4 4 0 0 1 196 220v-6.3a4 4 0 0 1 6.1-3.4l7.9 4.9A12 12 0 0 0 220 220V36a12 12 0 0 0-12-12ZM172 156H84a12 12 0 0 1 0-24h88a12 12 0 0 1 0 24Zm0-40H84a12 12 0 0 1 0-24h88a12 12 0 0 1 0 24Z"/>
  </symbol>

  <symbol id="icon-chart" viewBox="0 0 256 256">
    <path fill="currentColor" d="M224 200a8 8 0 0 1-8 8H40a8 8 0 0 1-8-8V56a8 8 0 0 1 16 0v134.1L172.7 76.7a8 8 0 0 1 10.6 0L224 113.5V56a8 8 0 0 1 16 0v144Zm-16-64.5-40-35.6-51.5 45.8a8 8 0 0 1-10.6 0L64 111.9V192h144Z"/>
  </symbol>

  <symbol id="icon-repeat" viewBox="0 0 256 256">
    <path fill="currentColor" d="M224 128a8 8 0 0 1-8 8h-42.3l14.1 14.1a8 8 0 1 1-11.3 11.3l-28-28a8 8 0 0 1 0-11.3l28-28a8 8 0 1 1 11.3 11.3L173.7 112H216a8 8 0 0 1 8 8v8ZM32 128a8 8 0 0 1 8-8h42.3L68.2 105.9a8 8 0 1 1 11.3-11.3l28 28a8 8 0 0 1 0 11.3l-28 28a8 8 0 1 1-11.3-11.3L82.3 136H40a8 8 0 0 1-8-8Zm164-56H60a28 28 0 0 0-28 28v8a8 8 0 0 0 16 0v-8a12 12 0 0 1 12-12h136a12 12 0 0 1 12 12v8a8 8 0 0 0 16 0v-8a28 28 0 0 0-28-28Zm-140 112h136a28 28 0 0 0 28-28v-8a8 8 0 0 0-16 0v8a12 12 0 0 1-12 12H56a12 12 0 0 1-12-12v-8a8 8 0 0 0-16 0v8a28 28 0 0 0 28 28Z"/>
  </symbol>

  <symbol id="icon-wallet" viewBox="0 0 256 256">
    <path fill="currentColor" d="M216 72h-8v-8a24 24 0 0 0-24-24H56a24 24 0 0 0-24 24v128a24 24 0 0 0 24 24h160a16 16 0 0 0 16-16V88a16 16 0 0 0-16-16Zm-8 112H56a8 8 0 0 1-8-8V72a8 8 0 0 1 8-8h128a8 8 0 0 1 8 8v8H72a8 8 0 0 0 0 16h136v96Zm-16-56a12 12 0 1 1-12-12 12 12 0 0 1 12 12Z"/>
  </symbol>

  <symbol id="icon-plus" viewBox="0 0 256 256">
    <path fill="currentColor" d="M224 128a8 8 0 0 1-8 8h-80v80a8 8 0 0 1-16 0v-80H40a8 8 0 0 1 0-16h80V40a8 8 0 0 1 16 0v80h80a8 8 0 0 1 8 8Z"/>
  </symbol>

  <symbol id="icon-search" viewBox="0 0 256 256">
    <path fill="currentColor" d="M228.24 219.76l-51.38-51.38a88.15 88.15 0 1 0-8.48 8.48l51.38 51.38a6 6 0 0 0 8.48-8.48ZM20 112a80 80 0 1 1 80 80 80.09 80.09 0 0 1-80-80Z"/>
  </symbol>

  <symbol id="icon-pencil" viewBox="0 0 256 256">
    <path fill="currentColor" d="M227.3 73.4 182.6 28.7a16 16 0 0 0-22.6 0L36.7 152a15.9 15.9 0 0 0-4.7 11.3V208a8 8 0 0 0 8 8h44.7a15.9 15.9 0 0 0 11.3-4.7L227.3 96a16 16 0 0 0 0-22.6ZM82.7 200H48v-34.7l99.7-99.6 34.6 34.6ZM194 88.7l-11.3-11.4L194 65.9l11.3 11.3Z"/>
  </symbol>

  <symbol id="icon-trash" viewBox="0 0 256 256">
    <path fill="currentColor" d="M216 48h-40v-8a24 24 0 0 0-24-24h-48a24 24 0 0 0-24 24v8H40a8 8 0 0 0 0 16h8v144a16 16 0 0 0 16 16h128a16 16 0 0 0 16-16V64h8a8 8 0 0 0 0-16ZM96 40a8 8 0 0 1 8-8h48a8 8 0 0 1 8 8v8H96Zm96 168H64V64h128Zm-80-104v72a8 8 0 0 1-16 0v-72a8 8 0 0 1 16 0Zm48 0v72a8 8 0 0 1-16 0v-72a8 8 0 0 1 16 0Z"/>
  </symbol>

  <symbol id="icon-tag" viewBox="0 0 256 256">
    <path fill="currentColor" d="M226.8 102.3 153.7 29.2A16 16 0 0 0 142.3 24H48a16 16 0 0 0-16 16v94.3a16 16 0 0 0 4.7 11.3l73.1 73.1a24 24 0 0 0 33.9 0l83.1-83.1a24 24 0 0 0 0-33.3ZM88 96a16 16 0 1 1 16-16 16 16 0 0 1-16 16Z"/>
  </symbol>

  <symbol id="icon-check" viewBox="0 0 256 256">
    <path fill="currentColor" d="M229.7 82.3 106.3 205.7a8 8 0 0 1-11.3 0l-58.7-58.7a8 8 0 0 1 11.3-11.3l53 53 117.7-117.7a8 8 0 0 1 11.3 11.3Z"/>
  </symbol>

  <symbol id="icon-x" viewBox="0 0 256 256">
    <path fill="currentColor" d="M205.7 194.3a8 8 0 0 1-11.3 11.3L128 139.3l-66.3 66.3a8 8 0 0 1-11.3-11.3L116.7 128 50.3 61.7a8 8 0 0 1 11.3-11.3L128 116.7l66.3-66.4a8 8 0 0 1 11.3 11.3L139.3 128Z"/>
  </symbol>

  <symbol id="icon-arrow-up-right" viewBox="0 0 256 256">
    <path fill="currentColor" d="M204 68v96a8 8 0 0 1-16 0V87.3L69.7 205.7a8 8 0 0 1-11.4-11.4L176.7 76H108a8 8 0 0 1 0-16h88a8 8 0 0 1 8 8Z"/>
  </symbol>

  <symbol id="icon-caret-down" viewBox="0 0 256 256">
    <path fill="currentColor" d="M213.7 101.7l-80 80a8 8 0 0 1-11.4 0l-80-80a8 8 0 0 1 11.4-11.4L128 165.1l74.3-74.8a8 8 0 0 1 11.4 11.4Z"/>
  </symbol>

  <symbol id="icon-upload" viewBox="0 0 256 256">
    <path fill="currentColor" d="M74.3 85.7a8 8 0 0 1 0-11.4l48-48a8 8 0 0 1 11.4 0l48 48a8 8 0 0 1-11.4 11.4L136 51.3V152a8 8 0 0 1-16 0V51.3L85.7 85.7a8 8 0 0 1-11.4 0ZM216 144a8 8 0 0 0-8 8v48H48v-48a8 8 0 0 0-16 0v48a16 16 0 0 0 16 16h160a16 16 0 0 0 16-16v-48a8 8 0 0 0-8-8Z"/>
  </symbol>

  <symbol id="icon-gear" viewBox="0 0 256 256">
    <path fill="currentColor" d="M128 88a40 40 0 1 0 40 40 40 40 0 0 0-40-40Zm88.7 40a86.9 86.9 0 0 0-1.2-14.4l19-14.8a8 8 0 0 0 1.9-10.2l-20-34.6a8 8 0 0 0-9.7-3.5l-22.3 9a87.5 87.5 0 0 0-25-14.4l-3.4-23.7A8 8 0 0 0 148 16h-40a8 8 0 0 0-7.9 6.9l-3.4 23.7a87.5 87.5 0 0 0-25 14.4l-22.3-9a8 8 0 0 0-9.7 3.5l-20 34.6a8 8 0 0 0 1.9 10.2l19 14.8a86.9 86.9 0 0 0 0 28.8l-19 14.8a8 8 0 0 0-1.9 10.2l20 34.6a8 8 0 0 0 9.7 3.5l22.3-9a87.5 87.5 0 0 0 25 14.4l3.4 23.7a8 8 0 0 0 7.9 6.9h40a8 8 0 0 0 7.9-6.9l3.4-23.7a87.5 87.5 0 0 0 25-14.4l22.3 9a8 8 0 0 0 9.7-3.5l20-34.6a8 8 0 0 0-1.9-10.2l-19-14.8a86.9 86.9 0 0 0 1.2-14.4Z"/>
  </symbol>

  <symbol id="icon-sparkle" viewBox="0 0 256 256">
    <path fill="currentColor" d="M208 144a8 8 0 0 1-6.3 7.8 47.9 47.9 0 0 0-37.9 37.9 8 8 0 0 1-15.6 0 47.9 47.9 0 0 0-37.9-37.9 8 8 0 0 1 0-15.6 47.9 47.9 0 0 0 37.9-37.9 8 8 0 0 1 15.6 0 47.9 47.9 0 0 0 37.9 37.9 8 8 0 0 1 6.3 7.8ZM152 56a24 24 0 0 0 19-19 8 8 0 0 1 15.7 0 24 24 0 0 0 19 19 8 8 0 0 1 0 15.7 24 24 0 0 0-19 19 8 8 0 0 1-15.7 0 24 24 0 0 0-19-19 8 8 0 0 1 0-15.7ZM68 112a32 32 0 0 0 25.4-25.4 8 8 0 0 1 15.7 0A32 32 0 0 0 134.5 112a8 8 0 0 1 0 15.7A32 32 0 0 0 109.1 153a8 8 0 0 1-15.7 0A32 32 0 0 0 68 127.7a8 8 0 0 1 0-15.7Z"/>
  </symbol>

  <symbol id="icon-warning" viewBox="0 0 256 256">
    <path fill="currentColor" d="M236.8 188.1 149.5 36.7a24.8 24.8 0 0 0-43 0L19.2 188.1A23.7 23.7 0 0 0 40 224h176a23.7 23.7 0 0 0 20.8-35.9ZM120 96a8 8 0 0 1 16 0v56a8 8 0 0 1-16 0Zm8 112a12 12 0 1 1 12-12 12 12 0 0 1-12 12Z"/>
  </symbol>

  <symbol id="icon-arrow-counter-clockwise" viewBox="0 0 256 256">
    <path fill="currentColor" d="M197.7 58.3A96 96 0 1 0 224 128a8 8 0 0 0-16 0 80 80 0 1 1-23.4-56.6L165 91a8 8 0 0 0 5.7 13.7h48a8 8 0 0 0 8-8V48.7a8 8 0 0 0-13.7-5.6Z"/>
  </symbol>

</svg>
